<?xml version="1.0" encoding="utf-8"?>
<!-- Generator: Adobe Illustrator 22.1.0, SVG Export Plug-In . SVG Version: 6.00 Build 0)  -->
<svg version="1.1" id="Capa_1" xmlns="http://www.w3.org/2000/svg" xmlns:xlink="http://www.w3.org/1999/xlink" x="0px" y="0px"
	 viewBox="0 0 48 48" style="enable-background:new 0 0 48 48;" xml:space="preserve">
<style type="text/css">
	.st0{fill:#E53F2E;stroke:#E53F2E;stroke-width:0.2224;}
</style>
<g>
	<path class="st0" d="M34.1,32.3c-0.4,0-0.9,0-1.3,0c-0.9,0-1.5,0.4-1.7,1.4C31,34.5,31,35.3,31,36.1c0,0.7,0.1,1.3,0.2,2
		c0,0.4-0.1,0.6-0.5,0.7c-1.2,0.3-1.2,0.3-1.3-0.9c0-0.2,0-0.5-0.1-0.7c-0.1-0.2-0.2-0.3-0.3-0.4c-0.1,0.2-0.3,0.3-0.3,0.5
		c0,0.4,0,0.9,0.1,1.3c0,0.5-0.1,0.7-0.6,0.7c-1.2,0.2-1.2,0.1-1.3-1.1c0-0.2,0-0.5,0-0.7c0-0.1-0.2-0.2-0.3-0.4
		c-0.1,0.1-0.3,0.2-0.3,0.4c0,0.4,0,0.9,0,1.3c0,0.5-0.1,0.7-0.7,0.7c-1.1,0-1.1,0-1.1-1.1c0-0.3,0-0.5,0-0.8c0-0.1-0.2-0.2-0.3-0.4
		c-0.1,0.1-0.3,0.2-0.3,0.3c-0.1,0.4-0.1,0.9-0.1,1.3c0,0.4-0.2,0.6-0.6,0.6c-1.3,0-1.3,0-1.2-1.3c0-0.3,0.1-0.6,0-0.8
		c0-0.1-0.2-0.2-0.3-0.3c-0.1,0.1-0.3,0.2-0.3,0.3c-0.1,0.5-0.1,1-0.2,1.5c0,0.3-0.2,0.5-0.5,0.5c-1.4-0.2-1.3,0-1.2-1.4
		c0-0.2,0.1-0.4,0-0.6c0-0.2-0.1-0.6-0.3-0.6c-0.4-0.1-0.4,0.3-0.4,0.6c-0.1,0.4-0.1,0.7-0.1,1.1c0,0.4-0.2,0.6-0.6,0.5
		c-1.4-0.3-1.2-0.2-1.1-1.4c0-0.7,0.2-1.4,0.2-2.1c0-0.8-0.2-1.6-0.4-2.3c-0.2-0.6-0.7-0.9-1.4-0.9c-1,0-1.9,0-2.9,0
		c-2.6,0.1-4.5-2.8-3.2-5.1c0.8-1.5,0.3-2.9-0.1-4.4c-0.5-1.6-1.1-3.1-1.6-4.7c-0.8-2.4-0.4-4.8,0.6-7c1.7-4.1,4.5-7.3,8.5-9.3
		c3.3-1.6,6.7-2,10.3-1.5c4.6,0.7,8.3,3.1,11,6.9c1.6,2.2,2.7,4.5,3.1,7.3c0.2,1.7-0.2,3.4-0.7,5c-0.5,1.7-1.1,3.4-1.7,5.1
		c-0.3,0.9-0.2,1.8,0.3,2.7c1.3,2.6-0.6,5-3.1,5.2C35.2,32.3,34.7,32.3,34.1,32.3C34.1,32.3,34.1,32.3,34.1,32.3z M15.9,27.4
		c0.7-0.1,1.3-0.2,2-0.4c1.2-0.3,2.4-0.8,3.2-1.8c1.3-1.5,0.9-3.6-0.8-4.4c-1.4-0.7-2.9-0.8-4.5-0.7c-1.5,0.1-2.7,0.8-3.5,2.1
		c-0.9,1.3-0.5,3.6,0.7,4.4C13.8,27.1,14.8,27.4,15.9,27.4z M31.9,20.1c-1.5-0.1-2.7,0.1-3.8,0.6c-2.4,1-2.3,3.7-0.7,4.9
		c2,1.5,4.2,2.2,6.7,1.4c2.3-0.7,3-3.3,1.5-5.2C34.5,20.5,33.2,20,31.9,20.1z M24.1,27.3c0,0-0.1,0-0.1,0c-0.1-0.5-0.2-0.9-0.3-1.4
		c-0.1-0.3-0.3-0.6-0.4-0.8c-0.2,0.3-0.5,0.5-0.5,0.8c-0.4,1.5-0.8,3-1.2,4.6c-0.2,0.7-0.1,1.5,0.5,2.1c0.5,0.6,1.3,0.5,1.6-0.2
		c0.1-0.3,0.2-0.6,0.4-0.9c0.1,0.3,0.2,0.6,0.3,0.8c0.4,0.9,1.2,1,1.8,0.2c0.5-0.6,0.5-1.3,0.3-2.1c-0.1-0.6-0.2-1.2-0.4-1.8
		c-0.3-1-0.6-2-0.9-2.9c-0.1-0.2-0.3-0.3-0.4-0.4c-0.1,0.2-0.3,0.4-0.3,0.6C24.3,26.2,24.2,26.8,24.1,27.3z"/>
	<path class="st0" d="M14.7,34.3c0,0.2,0,0.3,0,0.5c0.1,1.3,0.5,2.6,1.3,3.6c0.1,0.1,0.1,0.2,0.1,0.2c0.2,0.6,0.7,0.9,1.4,0.9
		c0.1,0,0.2,0,0.3,0c0.8,0.1,0.8,0.1,0.6,0.9c-0.1,0.8-0.1,0.9,0.6,1.1c0.1-0.4,0.1-0.8,0.2-1.2c0-0.3,0.2-0.5,0.5-0.5
		c1.5,0.2,1.3-0.2,1.2,1.4c0,0.2-0.1,0.5,0,0.7c0.1,0.2,0.3,0.3,0.4,0.4c0.1-0.1,0.3-0.3,0.3-0.4c0.1-0.5,0.1-1,0.1-1.5
		c0-0.3,0.2-0.5,0.5-0.5c1.5,0.1,1.5-0.2,1.3,1.4c0,0.2,0,0.4,0,0.6c-0.1,0.4,0,0.6,0.5,0.6c0.5,0,0.6-0.2,0.5-0.6
		c-0.1-0.5-0.1-1-0.1-1.5c0-0.3,0.1-0.5,0.4-0.5c0,0,0,0,0.1,0c1.4-0.2,1.4-0.2,1.5,1.3c0,0.2,0,0.5,0,0.7c0,0.1,0.3,0.4,0.3,0.4
		c0.2-0.1,0.4-0.2,0.4-0.4c0-0.5,0-1-0.1-1.6c0-0.3,0.1-0.5,0.4-0.5c1.3-0.2,1.3-0.2,1.5,1.1c0,0.2,0.1,0.3,0.1,0.5
		c0.5-0.1,0.7-0.3,0.6-0.9c-0.2-1.1-0.2-1.2,0.9-1.2c0.6,0,1-0.3,1.3-0.8c0.7-1.1,1.3-2.3,1.4-3.7c0-0.2,0-0.5,0.1-0.7
		c0,0-0.1,0-0.1-0.1c-0.1,0.2-0.2,0.3-0.3,0.5c-0.2,0.4-0.4,0.8-0.6,1.2c-0.1,0.2-0.3,0.2-0.5,0.4c-0.1-0.2-0.3-0.4-0.3-0.6
		c0-0.7,0.1-1.4,0.2-2.1c0.1-0.4,0.4-0.7,0.8-0.7c1.1,0,2.1-0.1,3.2-0.1c0.6,0,0.8,0.3,0.6,0.8c-0.9,1.8-0.8,3.6-0.5,5.4
		c0.3,1.8-0.3,3.2-1.7,4.2c-0.6,0.5-1.2,0.9-2,1c-0.4,0-0.9,0.3-1.2,0.6c-1,0.8-2,1.7-3,2.5c-0.5,0.5-1.1,0.7-1.8,0.7
		c-1.4,0-2.8,0-4.2,0c-0.7,0-1.3-0.2-1.9-0.7c-0.9-0.8-1.9-1.6-2.9-2.4c-0.5-0.4-1-0.7-1.7-0.7c-0.2,0-0.5-0.1-0.7-0.2
		c-0.8-0.7-1.6-1.4-2.3-2.2c-0.3-0.3-0.3-0.9-0.3-1.4c0-0.9,0.1-1.8,0.2-2.7c0.2-1.4,0-2.6-0.6-3.9c-0.3-0.6-0.1-1,0.6-0.9
		c1,0,2,0.1,3.1,0.1c0.5,0,0.8,0.3,0.9,0.7c0.1,0.7,0.2,1.4,0.2,2.1c0,0.2-0.2,0.4-0.3,0.5c-0.2-0.1-0.4-0.2-0.5-0.4
		c-0.3-0.5-0.6-1.1-0.9-1.6C14.8,34.2,14.8,34.2,14.7,34.3z"/>
</g>
</svg>
