<?xml version="1.0" encoding="utf-8"?>
<!-- Generator: Adobe Illustrator 22.1.0, SVG Export Plug-In . SVG Version: 6.00 Build 0)  -->
<svg version="1.1" id="Capa_1" xmlns="http://www.w3.org/2000/svg" xmlns:xlink="http://www.w3.org/1999/xlink" x="0px" y="0px"
	 viewBox="0 0 48 48" style="enable-background:new 0 0 48 48;" xml:space="preserve">
<style type="text/css">
	.st0{fill:#57D634;stroke:#57D634;stroke-width:0.7208;}
</style>
<path class="st0" d="M32.5,16.6c1.3,0,2.6,0,3.9,0c0.9,0,1.7,0.1,2.5,0.3c2.1,0.7,3.3,2.6,3.1,4.8c0,0.2-0.1,0.5-0.1,0.7
	c-0.1,0.8,0.2,1.5,0.8,2c0.8,0.7,1.3,1.5,1.5,2.5c0.5,2.1,0,3.9-1.4,5.5c-0.5,0.6-0.8,1.3-0.8,2.1c0,1.4-0.3,2.8-1.2,3.9
	c-0.2,0.3-0.5,0.6-0.8,0.9c-0.5,0.4-0.7,0.9-0.6,1.5c0,0.9,0,1.8-0.2,2.6c-0.5,1.9-1.8,3-3.7,3.2c-1,0.1-2,0.1-3,0.1
	c-2.8,0-5.7,0-8.5,0c-1.7,0-3.4,0-5-0.5c-2.6-0.8-4.8-2.2-6.6-4.3c-0.4-0.4-0.7-0.8-1-1.3c-0.6-0.8-1.5-1.1-2.5-1.1
	c-1.7,0-3.5,0-5.2,0c-1.1,0-1.7-0.7-1.8-1.8c-0.1-1.4-0.1-2.7-0.1-4.1c0-1.6,0-3.3,0-4.9c0-2.8,0-5.5,0-8.3c0-0.1,0-0.2,0-0.3
	c0-1.4,0.8-2.1,2.2-2.1c1.6,0,3.3,0.1,4.9,0.1c1.5,0,2.9-0.4,4.1-1.3c1.1-0.8,2.1-1.6,3.1-2.4c2.7-2.1,5.4-4.2,8.1-6.3
	c1.9-1.5,3.5-3.3,4.8-5.3c0.2-0.3,0.5-0.7,0.7-1c0.7-1.1,1.7-1.4,2.9-1.2c1.6,0.3,2.6,1.2,3.3,2.6c1.1,2.4,1.1,4.9-0.1,7.2
	c-0.9,1.8-2,3.6-3,5.4C32.7,16.4,32.6,16.5,32.5,16.6z M17,31.8c0.6-0.8,1.2-1.5,2.2-1.6c0.1,0,0.1,0,0.2-0.1
	c2.5-0.9,4.2-2.6,4.8-5.2c0.2-1,0.2-2,0.2-3c0-1.1,0.3-2.2,1-3.2c0.6-0.7,1.3-1.2,2.1-1.6c0.6-0.2,1-0.6,1.4-1.1
	c0.2-0.4,0.5-0.7,0.8-1.1c1.1-1.6,2.3-3.1,3.2-4.8c0.2-0.5,0.4-1,0.6-1.5c0.2-1,0.1-2.1,0.1-3.2c0-0.7-0.4-1.1-0.9-1.5
	c-0.3-0.2-0.6-0.2-0.9,0c-0.4,0.3-0.7,0.7-1,1.2c-1.2,2.3-2.8,4.3-5.1,5.7c-1.5,0.9-2.8,2-4.2,3c-2.6,2.1-5.1,4.2-7.7,6.3
	c-0.5,0.4-1.2,0.8-1.8,0.9c-1.6,0.4-3.2,0.4-4.8,0.4c-0.8,0-1.6,0-2.4,0c0,5.2,0,10.3,0,15.5c0.2,0,0.3,0,0.4,0c1.8,0,3.5,0,5.3,0
	c1,0,1.9,0.4,2.4,1.3c0.1,0.2,0.3,0.4,0.4,0.5c1.4,1.9,3.1,3.4,5.3,4.3c2.4,1,4.9,1.1,7.4,0.7c0.2,0,0.2-0.1,0.2-0.3
	c0.1-1.2,0.1-2.5,0.2-3.7c0-0.2,0-0.4-0.2-0.5c-1-0.7-1.7-1.7-2-2.9c-0.2-0.8,0-1.5,0.2-2.3c0.3-1.2,0.2-2.3-0.7-3.3
	c-0.2-0.2-0.3-0.3-0.6-0.1c-1.3,0.5-2.7,1.1-4,1.6c-0.2,0.1-0.6,0.1-0.8,0C17.8,32.2,17.4,32,17,31.8z M33.8,30.8
	C33.8,30.8,33.8,30.8,33.8,30.8c0.9,0,1.7,0,2.6,0c1.1,0,2.3,0,3.4,0c0.9,0,1.4-0.4,1.6-1.3c0.1-0.7,0.1-1.4,0-2.1
	c-0.2-0.7-0.6-1-1.3-1.1c-0.3,0-0.5,0-0.8,0c-3.5,0-7,0-10.5,0c-0.4,0-0.9,0-1.3,0c-0.7,0.1-1.1,0.5-1.3,1.1
	c-0.1,0.5-0.2,1.1-0.1,1.7c0.1,1.2,0.7,1.6,1.9,1.6C29.9,30.8,31.9,30.8,33.8,30.8z M33.1,37.5c1.4,0,2.8,0,4.2,0
	c0.9,0,1.5-0.4,1.6-1.3c0.1-0.6,0.1-1.2,0-1.8c-0.1-0.8-0.6-1.2-1.4-1.2c-0.3,0-0.6,0-1,0c-2.6,0-5.2,0-7.8,0
	c-0.9,0-1.5,0.4-1.6,1.3c-0.1,0.5-0.1,1,0,1.4c0.1,1.2,0.7,1.7,1.9,1.7C30.4,37.5,31.8,37.5,33.1,37.5z M33.1,23.9
	c1.1,0,2.2,0,3.2,0c0.4,0,0.9,0,1.3,0c0.7-0.1,1.2-0.4,1.3-1.1c0.1-0.6,0.1-1.3,0-2c-0.1-0.9-0.7-1.4-1.6-1.4c-0.7,0-1.3,0-2,0
	c-2.2,0-4.3,0-6.5,0c-1,0-1.5,0.5-1.6,1.4c-0.1,0.5-0.1,1,0,1.6c0.1,1,0.7,1.4,1.7,1.4C30.3,23.9,31.7,23.9,33.1,23.9z M32.8,44.1
	C32.8,44.1,32.8,44.1,32.8,44.1c0.8,0,1.6,0,2.4,0c0.7,0,1.1-0.4,1.3-1.1c0.2-0.7,0.2-1.4,0.1-2.1c-0.2-0.7-0.7-1.2-1.4-1.2
	c-1.5,0-3,0-4.5,0c-1,0-1.6,0.5-1.8,1.4c-0.1,0.4-0.1,0.7-0.1,1.1c0,1.2,0.6,1.8,1.8,1.9C31.3,44.1,32,44.1,32.8,44.1z"/>
</svg>
