<?xml version="1.0" encoding="utf-8"?>
<!-- Generator: Adobe Illustrator 22.1.0, SVG Export Plug-In . SVG Version: 6.00 Build 0)  -->
<svg version="1.1" id="Capa_1" xmlns="http://www.w3.org/2000/svg" xmlns:xlink="http://www.w3.org/1999/xlink" x="0px" y="0px"
	 viewBox="0 0 32 32" style="enable-background:new 0 0 32 32;" xml:space="preserve">
<style type="text/css">
	.st0{fill:#E74416;}
	.st1{fill:#FFFFFF;}
</style>
<path class="st0" d="M26.3,32H5.7C2.6,32,0,29.4,0,26.3V5.7C0,2.6,2.6,0,5.7,0h20.6C29.4,0,32,2.6,32,5.7v20.6
	C32,29.4,29.4,32,26.3,32z"/>
<path class="st1" d="M2.6,11.6c0,11.6,10,16.7,12.7,17.9c0.4,0.2,0.9,0.2,1.3,0c2.7-1.2,12.7-6.3,12.7-17.9c0-3.8-3-6.9-6.7-6.9
	c-3,0-5.5,2-6.4,4.8c-0.1,0.3-0.5,0.3-0.6,0c-0.9-2.8-3.4-4.8-6.4-4.8C5.6,4.7,2.6,7.8,2.6,11.6z"/>
</svg>
